PathFileType	4	(X/Y/Z)	/Users/visionmauri/Downloads/Videos/OAW11-top_Sports2D/OAW11-top_Sports2D_m_person00.trc
DataRate	CameraRate	NumFrames	NumMarkers	Units	OrigDataRate	OrigDataStartFrame	OrigNumFrames
30.0	30.0	8	22	m	30.0	541	2166
Frame#	Time	Hip			RHip			RKnee			RAnkle			RBigToe			RSmallToe			RHeel			LHip			LKnee			LAnkle			LBigToe			LSmallToe			LHeel			Neck			Head			Nose			RShoulder			RElbow			RWrist			LShoulder			LElbow			LWrist			
		X1	Y1	Z1	X2	Y2	Z2	X3	Y3	Z3	X4	Y4	Z4	X5	Y5	Z5	X6	Y6	Z6	X7	Y7	Z7	X8	Y8	Z8	X9	Y9	Z9	X10	Y10	Z10	X11	Y11	Z11	X12	Y12	Z12	X13	Y13	Z13	X14	Y14	Z14	X15	Y15	Z15	X16	Y16	Z16	X17	Y17	Z17	X18	Y18	Z18	X19	Y19	Z19	X20	Y20	Z20	X21	Y21	Z21	X22	Y22	Z22
541	18.041662817551963	1.8344189217369955	-0.6471792487484005	0.0301	1.7133252206789962	-0.764775313588498	0.0301	2.0138415166082364	-1.2001519596501566	0.129	2.315162298315494	-1.6538762734622288	0.023	2.4467480676398203	-1.85172985265137	0.2179	2.351705359904038	-1.877869281982804	0.1804	2.372085522234856	-1.6882778984497084	-0.0119	1.9993621274997615	-0.6080375363381787	0.0301	2.1995485846156604	-0.9799863274791668	0.129	2.3110593538978073	-1.1863336956627863	0.023	2.4189558466430046	-1.3708861068662117	0.2179	2.4674417184973136	-1.2924462309953328	0.1804	2.300753963331709	-1.2105298256594845	-0.0119	1.4845524526869225	0.06279319601178236	0.0008	1.3558811299901679	0.29812674254668453	0.0655	1.4699070903858225	0.09114893458040399	0.1076	1.2876290709953435	-0.136284059843712	-0.01275	1.3432053201585095	-0.5329875465320221	0.0702	1.4014032708369524	-0.8770462349915029	0.1076	1.7524427078890554	0.1309667745848638	-0.01275	2.0788522186454093	-0.16242516033501325	0.0702	2.301329802031198	-0.4494444297162874	0.1076
542	18.07501154734411	1.8362520714696076	-0.6668134468427206	0.0301	1.7144823903966722	-0.7918102206808036	0.0301	2.0157832975133174	-1.2264875293175213	0.129	2.3188579418843056	-1.6611578421789213	0.023	2.453471020464168	-1.8553140692349643	0.2179	2.3553354531776973	-1.8807392221867212	0.1804	2.375305784697148	-1.6911883908855079	-0.0119	2.003406260816389	-0.6311188905872355	0.0301	2.20614590016118	-0.9911980971746639	0.129	2.317520087752175	-1.1923957585100682	0.023	2.4166732766788424	-1.3706273115134997	0.2179	2.468003426448772	-1.2943193385106813	0.1804	2.3081615335752454	-1.2170339114953304	-0.0119	1.4745411381131286	0.051218714804098155	0.0008	1.347125033530298	0.284466057071568	0.0655	1.4610852503639236	0.07537657381985319	0.1076	1.2846444992944377	-0.15530418060710047	-0.01275	1.3358632032733595	-0.5550015810665578	0.0702	1.3957640869932837	-0.9072988878949955	0.1076	1.7476577623875582	0.11549429623649006	-0.01275	2.075677333475034	-0.17992647032002246	0.0702	2.305132619098064	-0.46778433589878027	0.1076
543	18.10836027713626	1.833865734428093	-0.6803437929761246	0.0301	1.7085468458687199	-0.8091574210387324	0.0301	2.0085586579824373	-1.2438998307251345	0.129	2.31810136905495	-1.6657805282499296	0.023	2.4529367190023885	-1.861326360194335	0.2179	2.354108333010048	-1.8846878029649494	0.1804	2.375619299254559	-1.6939561843734539	-0.0119	2.0020291397910417	-0.6438075642660038	0.0301	2.215224850744024	-1.0035711766030044	0.129	2.3241637678923617	-1.1974727140943096	0.023	2.419668636604858	-1.3706144879597735	0.2179	2.4694780368526548	-1.2969119535801112	0.1804	2.311906149586464	-1.2230706533654674	-0.0119	1.4627954862721972	0.03741901861366729	0.0008	1.3375137921246831	0.2662496882994891	0.0655	1.4498541783823433	0.05347124952625912	0.1076	1.2753556018219783	-0.17042521319139792	-0.01275	1.327538150360684	-0.5754473586016606	0.0702	1.3888906347815677	-0.935836379624807	0.1076	1.7383086798924254	0.10330115320169074	-0.01275	2.071203453214051	-0.19600427371255072	0.0702	2.304729138185796	-0.48182304655392705	0.1076
544	18.141709006928405	1.8295184979245753	-0.692418017461904	0.0301	1.7025498899564075	-0.82281305603217	0.0301	2.003656285437757	-1.2565611600037614	0.129	2.3181063873597347	-1.6698804418670181	0.023	2.450413369914439	-1.8663820567920355	0.2179	2.3493962884170925	-1.8866536690076054	0.1804	2.37687266994811	-1.697380044995488	-0.0119	1.998315541826824	-0.65339087775946	0.0301	2.227634244705601	-1.0167615335070526	0.129	2.328442908147455	-1.200339120948477	0.023	2.4250389576679954	-1.3724417311035535	0.2179	2.473070851401161	-1.299985604415998	0.1804	2.3127490380140623	-1.2242185187825874	-0.0119	1.4519788454018094	0.024985110777295587	0.0008	1.328838735981643	0.24759269122801764	0.0655	1.4415398410008926	0.030585941213761764	0.1076	1.2621498349440743	-0.18392866422729037	-0.01275	1.318036635414264	-0.5966039455795294	0.0702	1.3815741824788659	-0.9618432503877474	0.1076	1.726927421236981	0.0930711595372028	-0.01275	2.0640365333873136	-0.20979116363328007	0.0702	2.300175071809249	-0.4927635253696251	0.1076
545	18.175057736720554	1.8273695708792579	-0.7088681058712714	0.0301	1.7011315747812397	-0.8400987239106867	0.0301	2.0087105720301883	-1.2703897834241586	0.129	2.319864195052576	-1.6731306741545786	0.023	2.4511209605165014	-1.8689975739352058	0.2179	2.3461939063174015	-1.887623198484964	0.1804	2.3798725440355897	-1.6995348252022027	-0.0119	1.9971434822806413	-0.6679333528855538	0.0301	2.2407648796303286	-1.027660776186543	0.129	2.330159884676921	-1.2014459746268895	0.023	2.4275952949628836	-1.3741425373262524	0.2179	2.4779060074723804	-1.3019052332669772	0.1804	2.314672946376617	-1.2203235050590386	-0.0119	1.4451493578782864	0.012192995587206996	0.0008	1.3249285864715121	0.22799129755308067	0.0655	1.441695374305203	0.0041608934237513644	0.1076	1.2505412260593713	-0.19781503719540014	-0.01275	1.3067502508401916	-0.6210334936399715	0.0702	1.374743375994289	-0.9887995046021328	0.1076	1.7180524574616223	0.08382359612487268	-0.01275	2.054390892990441	-0.22236284973937231	0.0702	2.2924661404785596	-0.5023505640860924	0.1076
546	18.208406466512702	1.8279544820112827	-0.727161766259312	0.0301	1.7013878453805664	-0.8565644807670454	0.0301	2.0170303747602385	-1.2847780297879052	0.129	2.3197379140183028	-1.6715827894710829	0.023	2.457506529836166	-1.8698923126640508	0.2179	2.3498575252889533	-1.8917112203478468	0.1804	2.3835416708115553	-1.6974547450262973	-0.0119	1.998497010065686	-0.681000880609246	0.0301	2.2547409148333863	-1.0388746675135334	0.129	2.3301940428823102	-1.2018867030331395	0.023	2.431487333017323	-1.3732725170890332	0.2179	2.482986631339409	-1.301406597074108	0.1804	2.3154577386459136	-1.2142354883078461	-0.0119	1.4435489863136557	-0.0069680192216173545	0.0008	1.3252976648226493	0.20821845605537104	0.0655	1.4460064819205252	-0.022354895333081288	0.1076	1.2418401082046693	-0.21175003978893417	-0.01275	1.29480039991238	-0.6479046986390767	0.0702	1.3691350697455398	-1.0213347218338091	0.1076	1.7127040914752967	0.07674750518484993	-0.01275	2.045051936654998	-0.2341176675987905	0.0702	2.2831022762697204	-0.511662257156998	0.1076
547	18.24175519630485	1.8293974115021887	-0.7413362648790776	0.0301	1.7001807973560303	-0.866096340751108	0.0301	2.0191629121485715	-1.2963036637824827	0.129	2.3161322578723427	-1.6645061236451375	0.023	2.4656155950914456	-1.8662490368939597	0.2179	2.3559143587886244	-1.8951281203433294	0.1804	2.3866509076566693	-1.69290304308478	-0.0119	1.9999047841099702	-0.6853211450106879	0.0301	2.2729295880371887	-1.0551313946276073	0.129	2.330408434166498	-1.2049252369349401	0.023	2.445502365059872	-1.374007698660881	0.2179	2.4914083233209747	-1.301804287653552	0.1804	2.313044979357829	-1.2132188892961866	-0.0119	1.4454763256935668	-0.031154529864935384	0.0008	1.3262122464043695	0.1915891113165686	0.0655	1.4487630743162592	-0.04330181350027726	0.1076	1.234727042890743	-0.22575527681864613	-0.01275	1.2849887332991485	-0.6736466129124419	0.0702	1.365215118028414	-1.0593214458273492	0.1076	1.7090747683319414	0.0725655562067046	-0.01275	2.0378511714848884	-0.24450379071392656	0.0702	2.274321254520036	-0.5217986371725905	0.1076
548	18.275103926096996	1.8313645787341488	-0.7513617613388375	0.0301	1.7000764145466547	-0.873744045455559	0.0301	2.0185378288060756	-1.3066103853185922	0.129	2.312478455849121	-1.6578277991685337	0.023	2.4673476236870218	-1.8559286696295092	0.2179	2.3547372362174914	-1.8893038011135026	0.1804	2.3884670526058454	-1.689065436216031	-0.0119	2.0032916018193636	-0.6884128377180248	0.0301	2.296667659737751	-1.0774857610706177	0.129	2.3374845212558224	-1.2192626243882858	0.023	2.4716650223220924	-1.3898567736904022	0.2179	2.509574391141381	-1.3156427022274448	0.1804	2.3157442071903955	-1.2312310133464768	-0.0119	1.4462120132228373	-0.04943873026923656	0.0008	1.3260608869399546	0.1787868553160628	0.0655	1.4526428595628331	-0.06363164872225643	0.1076	1.2292632679693338	-0.2400105833072292	-0.01275	1.2787692273756703	-0.6968646185591008	0.0702	1.3639065313813028	-1.0982850256191838	0.1076	1.7062853253021968	0.06857395995657342	-0.01275	2.032967413994131	-0.25428162003929977	0.0702	2.268472138833164	-0.5340441332225889	0.1076
